<svg width="24" height="24" viewBox="0 0 24 24" fill="none" xmlns="http://www.w3.org/2000/svg">
<g id="twemoji:credit-card" clip-path="url(#clip0_1527_42602)">
<path id="Vector" d="M2.66667 3.33333C1.95942 3.33333 1.28115 3.61428 0.781049 4.11438C0.280952 4.61447 0 5.29275 0 5.99999L0 18C0 18.7072 0.280952 19.3855 0.781049 19.8856C1.28115 20.3857 1.95942 20.6667 2.66667 20.6667H21.3333C22.0406 20.6667 22.7189 20.3857 23.219 19.8856C23.719 19.3855 24 18.7072 24 18V5.99999C24 5.99999 24 3.33333 21.3333 3.33333H2.66667Z" fill="#FFAC33"/>
<path id="Vector_2" d="M0 6.66667H24V10H0V6.66667Z" fill="#292F33"/>
<path id="Vector_3" d="M2.66675 12.6667H21.3334V16.6667H2.66675V12.6667Z" fill="#F4F7F9"/>
<path id="Vector_4" d="M12.6666 16C11.5313 16 11.106 15.1933 11.0206 14.7993C10.656 14.8267 10.3006 15.0013 9.81731 15.3087C9.30731 15.6327 8.72931 16 7.99998 16C7.20198 16 6.71731 15.55 6.66664 14.6667C6.66464 14.6293 6.69198 14.5413 6.68064 14.5413C5.44198 14.5413 4.54598 15.7153 4.53731 15.7273C4.48571 15.7981 4.42064 15.8579 4.34583 15.9034C4.27103 15.9489 4.18797 15.9792 4.10143 15.9926C4.01489 16.0059 3.92657 16.002 3.84154 15.981C3.75652 15.9601 3.67646 15.9226 3.60598 15.8707C3.53536 15.8189 3.47563 15.7537 3.43021 15.6788C3.38478 15.604 3.35455 15.5209 3.34124 15.4344C3.32793 15.3478 3.3318 15.2595 3.35263 15.1744C3.37346 15.0894 3.41084 15.0093 3.46264 14.9387C3.51398 14.8687 4.73998 13.3333 6.66664 13.3333C7.95798 13.3333 8.03198 14.25 8.05198 14.592L8.05664 14.6647C8.38064 14.642 8.71731 14.4287 9.10331 14.1827C9.74398 13.776 10.5386 13.2687 11.6033 13.5413C12.184 13.69 12.2746 14.2287 12.3093 14.432C12.318 14.4827 12.3306 14.5587 12.342 14.5827C12.3466 14.5827 12.4393 14.6433 12.7266 14.6693C13.2733 14.7193 13.874 14.4833 14.51 14.234C15.1686 13.9753 15.85 13.7087 16.584 13.7087C18.8433 13.7087 19.762 14.7987 19.8593 14.9227C19.9153 14.9914 19.957 15.0706 19.982 15.1557C20.007 15.2407 20.0148 15.3299 20.0049 15.418C19.995 15.5061 19.9677 15.5914 19.9244 15.6688C19.8812 15.7462 19.823 15.8141 19.7531 15.8688C19.6833 15.9234 19.6033 15.9635 19.5178 15.9869C19.4322 16.0102 19.3429 16.0162 19.255 16.0046C19.1671 15.993 19.0824 15.9639 19.0059 15.9192C18.9294 15.8744 18.8625 15.8149 18.8093 15.744C18.7933 15.726 18.1893 15.0413 16.5846 15.0413C16.1026 15.0413 15.566 15.2513 14.9973 15.474C14.3246 15.738 13.3746 16 12.6666 16Z" fill="#8899A6"/>
</g>
<defs>
<clipPath id="clip0_1527_42602">
<rect width="24" height="24" fill="white"/>
</clipPath>
</defs>
</svg>
