<svg width="96" height="96" viewBox="0 0 96 96" fill="none" xmlns="http://www.w3.org/2000/svg">
<g id="Icons / File">
<path id="Vector" d="M52 12.0035C51.618 12 51.1891 12 50.6989 12H32.8008C28.3204 12 26.0785 12 24.3672 12.8719C22.8619 13.6389 21.6389 14.8619 20.8719 16.3672C20 18.0785 20 20.3204 20 24.8008V71.2008C20 75.6812 20 77.9202 20.8719 79.6315C21.6389 81.1368 22.8619 82.3619 24.3672 83.1289C26.0768 84 28.316 84 32.7878 84L63.2124 84C67.684 84 69.92 84 71.6296 83.1289C73.1349 82.3619 74.3619 81.1368 75.1289 79.6315C76 77.9219 76 75.686 76 71.2143V37.3027C76 36.8118 75.9999 36.3824 75.9963 36M52 12.0035C53.1425 12.0139 53.8654 12.0554 54.5554 12.221C55.3717 12.417 56.1514 12.7411 56.8672 13.1797C57.6743 13.6743 58.3673 14.3673 59.75 15.75L72.2519 28.2519C73.6356 29.6355 74.3235 30.3254 74.8182 31.1328C75.2568 31.8486 75.5814 32.629 75.7773 33.4453C75.9429 34.135 75.9854 34.858 75.9963 36M52 12.0035V23.2C52 27.6804 52 29.9191 52.8719 31.6304C53.6389 33.1357 54.8619 34.3619 56.3672 35.1289C58.0768 36 60.316 36 64.7877 36H75.9963M75.9963 36H76.0008" stroke="#394D69" stroke-width="3" stroke-linecap="round" stroke-linejoin="round"/>
</g>
</svg>
