<svg width="120" height="60" viewBox="0 0 120 60" fill="none" xmlns="http://www.w3.org/2000/svg">
<g id="&#208;&#161;&#208;&#145;&#208;&#159;_&#208;&#187;&#208;&#190;&#208;&#179;&#208;&#190;&#209;&#130;&#208;&#184;&#208;&#191;">
<path id="path60" d="M103.765 17.1267V31.7957H98.5047V21.5057H93.4401V31.7957H88.1802V17.1257H103.765V17.1267Z" fill="black"/>
<path id="path62" fill-rule="evenodd" clip-rule="evenodd" d="M77.3776 32.3203C82.0862 32.3203 85.5827 29.4453 85.5827 25.0868C85.5827 20.8683 83.003 18.1293 78.6915 18.1293C76.7017 18.1293 75.0599 18.8268 73.8232 20.0303C74.1185 17.5428 76.2308 15.7268 78.5565 15.7268C79.0932 15.7268 83.134 15.7183 83.134 15.7183L85.4191 11.3638C85.4191 11.3638 80.3459 11.4788 77.9876 11.4788C72.5991 11.5723 68.9595 16.4498 68.9595 22.3738C68.9595 29.2753 72.5093 32.3203 77.3776 32.3203ZM77.4062 21.9863C79.1545 21.9863 80.3665 23.1303 80.3665 25.0863C80.3665 26.8468 79.2895 28.2973 77.4062 28.3013C75.6047 28.3013 74.3926 26.9573 74.3926 25.1163C74.3926 23.1598 75.6047 21.9863 77.4062 21.9863Z" fill="black"/>
<path id="path64" d="M64.6782 26.885C64.6782 26.885 63.4361 27.598 61.5808 27.733C59.4479 27.796 57.5475 26.4545 57.5475 24.071C57.5475 21.746 59.2245 20.4135 61.5271 20.4135C62.939 20.4135 64.8068 21.388 64.8068 21.388C64.8068 21.388 66.1735 18.8905 66.8814 17.6415C65.585 16.663 63.8583 16.1265 61.8499 16.1265C56.7813 16.1265 52.8555 19.4175 52.8555 24.0415C52.8555 28.7245 56.5453 31.939 61.8499 31.842C63.3326 31.787 65.3781 31.2685 66.6248 30.471L64.6782 26.885Z" fill="black"/>
<path id="path66" d="M0 13.0601L7.2964 26.0476V33.9696L0.00853557 46.9316L0 13.0601Z" fill="#5B57A2"/>
<path id="path68" d="M28.0151 21.3215L34.8521 17.1485L48.8444 17.1355L28.0151 29.8425V21.3215Z" fill="#D90751"/>
<path id="path70" d="M27.9765 12.9835L28.0151 30.1785L20.7017 25.7035V0L27.9765 12.9835Z" fill="#FAB718"/>
<path id="path72" d="M48.8444 17.1355L34.8516 17.1485L27.9765 12.9835L20.7017 0L48.8444 17.1355Z" fill="#ED6F26"/>
<path id="path74" d="M28.0151 47.0035V38.661L20.7017 34.271L20.7057 60L28.0151 47.0035Z" fill="#63B22F"/>
<path id="path76" d="M34.8351 42.8686L7.2959 26.0476L0 13.0601L48.8149 42.8516L34.8351 42.8686Z" fill="#1487C9"/>
<path id="path78" d="M20.7061 60.0001L28.0145 47.0036L34.8344 42.8686L48.8142 42.8516L20.7061 60.0001Z" fill="#017F36"/>
<path id="path80" d="M0.00830078 46.9315L20.7613 34.2715L13.7842 30.0085L7.29617 33.9695L0.00830078 46.9315Z" fill="#984995"/>
<path id="path82" d="M57.5489 41.6684C57.3883 41.8724 57.1769 42.0264 56.9233 42.1304C56.6632 42.2359 56.3848 42.2896 56.1039 42.2884C55.8246 42.2922 55.5468 42.2458 55.284 42.1514C55.0479 42.066 54.8322 41.9329 54.6504 41.7604C54.4708 41.5876 54.3298 41.3791 54.2366 41.1484C54.1357 40.8957 54.0854 40.6258 54.0885 40.3539C54.0885 40.0839 54.1352 39.8339 54.2321 39.5969C54.325 39.3594 54.4601 39.1559 54.6293 38.9849C54.7985 38.8104 55.0013 38.6774 55.2293 38.5734C55.4617 38.4734 55.7153 38.4194 55.994 38.4194C56.2942 38.4194 56.5729 38.4569 56.8264 38.5314C57.08 38.6064 57.2954 38.7314 57.4726 38.9064L57.1643 39.4264C57.0152 39.2918 56.8396 39.1897 56.6487 39.1264C56.4672 39.0682 56.2775 39.0388 56.0868 39.0394C55.9181 39.0394 55.7575 39.0724 55.6013 39.1349C55.4474 39.1966 55.3068 39.2871 55.1871 39.4014C55.0647 39.519 54.9683 39.6607 54.9039 39.8174C54.8321 39.9794 54.7985 40.1584 54.7985 40.3579C54.7985 40.5619 54.8361 40.7449 54.9079 40.9029C54.9802 41.0654 55.0771 41.2029 55.1996 41.3189C55.3222 41.4359 55.4658 41.5229 55.6304 41.5814C55.7956 41.6439 55.9688 41.6729 56.1546 41.6729C56.3826 41.6729 56.5899 41.6269 56.7672 41.5394C56.9428 41.4549 57.1006 41.3379 57.2321 41.1944L57.5489 41.6684ZM58.4191 42.2009V38.4984H59.0868V41.2569L61.2584 38.4984H61.9262V42.2014H61.2584V39.4429L59.0868 42.2014L58.4191 42.2009ZM66.3496 41.6684C66.1853 41.8741 65.9698 42.0334 65.7245 42.1304C65.4642 42.2358 65.1856 42.2895 64.9046 42.2884C64.6254 42.2921 64.3478 42.2457 64.0852 42.1514C63.849 42.066 63.633 41.9329 63.451 41.7604C63.2715 41.5876 63.1305 41.3791 63.0373 41.1484C62.9364 40.8957 62.8861 40.6258 62.8892 40.3539C62.8892 40.0839 62.9359 39.8339 63.0328 39.5969C63.1262 39.3594 63.2612 39.1559 63.4299 38.9849C63.5991 38.8104 63.802 38.6774 64.0299 38.5734C64.2707 38.4678 64.5316 38.4153 64.7946 38.4194C65.0949 38.4194 65.3735 38.4569 65.6271 38.5314C65.8806 38.6064 66.096 38.7314 66.2738 38.9064L65.965 39.4264C65.8161 39.2918 65.6407 39.1896 65.4498 39.1264C65.2683 39.0682 65.0787 39.0388 64.888 39.0394C64.5524 39.0405 64.23 39.1701 63.9878 39.4014C63.8664 39.5199 63.7702 39.6613 63.7046 39.8174C63.6328 39.9794 63.5991 40.1584 63.5991 40.3579C63.5991 40.5619 63.6373 40.7449 63.7091 40.9029C63.7809 41.0654 63.8778 41.2029 64.0003 41.3189C64.1228 41.4359 64.2669 41.5229 64.4316 41.5814C64.5963 41.6394 64.7695 41.6729 64.9553 41.6729C65.1837 41.6729 65.3866 41.6269 65.5678 41.5394C65.7435 41.4549 65.9013 41.3379 66.0328 41.1944L66.3496 41.6684ZM66.692 38.4984H70.1183V39.1559H68.7411V42.2009H68.0733V39.1559H66.696V38.4984H66.692Z" fill="black"/>
<path id="path84" fill-rule="evenodd" clip-rule="evenodd" d="M73.237 42.1638C73.4905 42.0848 73.7059 41.9638 73.8917 41.7978L73.6889 41.2818C73.5664 41.3903 73.4017 41.4818 73.2034 41.5568C73.0045 41.6318 72.7806 41.6688 72.5356 41.6688C72.168 41.6688 71.8638 41.5733 71.6228 41.3778C71.3823 41.1818 71.2512 40.9078 71.2216 40.5578H74.1116C74.1413 40.4288 74.1538 40.2833 74.1538 40.1128C74.1538 39.8588 74.1071 39.6303 74.0142 39.4223C73.9278 39.2203 73.8014 39.0377 73.6427 38.8853C73.4818 38.7343 73.2921 38.617 73.0849 38.5403C72.868 38.4565 72.6372 38.4141 72.4045 38.4153C72.0917 38.4153 71.8171 38.4693 71.5766 38.5693C71.3492 38.6646 71.1435 38.8047 70.9721 38.9813C70.8056 39.157 70.6777 39.3652 70.5965 39.5928C70.5072 39.8352 70.4628 40.0917 70.4654 40.3498C70.4654 40.6413 70.5162 40.9073 70.609 41.1448C70.6994 41.3749 70.8377 41.5833 71.0147 41.7563C71.188 41.9263 71.3988 42.0558 71.6484 42.1473C71.9155 42.2417 72.1974 42.288 72.4808 42.2843C72.7375 42.2827 72.9925 42.2418 73.237 42.1638ZM71.547 39.3138C71.7538 39.1268 72.0285 39.0353 72.3749 39.0353C72.7003 39.0353 72.9623 39.1228 73.1526 39.2978C73.3429 39.4723 73.4439 39.7138 73.4609 40.0213H71.1794C71.2118 39.749 71.3424 39.4973 71.547 39.3138Z" fill="black"/>
<path id="path86" d="M75.062 38.4983H75.6705L77.1156 40.3333L78.4843 38.4983H79.0757V42.2013H78.4085V39.5013L77.107 41.2193H77.0814L75.7298 39.5008V42.2008H75.062V38.4983Z" fill="black"/>
<path id="path88" fill-rule="evenodd" clip-rule="evenodd" d="M80.8926 38.511C80.6899 38.5637 80.4963 38.6462 80.3182 38.756L80.4954 39.281C80.6475 39.206 80.7997 39.1435 80.9518 39.0895C81.1039 39.035 81.2982 39.01 81.5307 39.01C81.7165 39.01 81.8646 39.0395 81.9786 39.0975C82.0926 39.1515 82.1769 39.235 82.2362 39.335C82.2954 39.435 82.3336 39.5595 82.3546 39.705C82.3757 39.8505 82.3843 40.0085 82.3843 40.1795C82.2476 40.0846 82.0919 40.0207 81.9279 39.992C81.7693 39.9606 81.6081 39.9438 81.4464 39.942C81.2475 39.942 81.0618 39.9715 80.884 40.021C80.7068 40.071 80.5546 40.146 80.4321 40.246C80.3071 40.3458 80.206 40.4722 80.1364 40.616C80.062 40.7733 80.0244 40.9455 80.0264 41.1195C80.0264 41.4815 80.1324 41.7645 80.3433 41.9645C80.5546 42.164 80.8333 42.2635 81.1798 42.2635C81.4926 42.2635 81.7421 42.2095 81.9319 42.1015C82.1222 41.993 82.2743 41.8685 82.3843 41.727V42.2055H83.0094V39.934C83.0094 39.451 82.9039 39.077 82.6885 38.8145C82.4772 38.5525 82.1011 38.4195 81.5689 38.4195C81.3319 38.4195 81.108 38.4525 80.8926 38.511ZM82.0087 41.511C81.8566 41.619 81.6577 41.6685 81.4127 41.6685C81.1973 41.6685 81.0281 41.6145 80.9101 41.5105C80.7916 41.4025 80.7324 41.261 80.7324 41.086C80.7324 40.9825 80.7535 40.895 80.8002 40.816C80.8469 40.737 80.9101 40.6745 80.9819 40.6245C81.0605 40.5722 81.1477 40.5341 81.2395 40.512C81.3369 40.487 81.4338 40.4745 81.5352 40.4745C81.8651 40.4745 82.1478 40.5535 82.3803 40.72V41.19C82.2707 41.3122 82.1458 41.4204 82.0087 41.511ZM88.9039 37.196C89.039 37.134 89.1655 37.03 89.284 36.876L88.9205 36.356C88.8276 36.481 88.7222 36.568 88.6037 36.614C88.4781 36.6628 88.3479 36.699 88.2151 36.722L88.0885 36.7445C87.9786 36.7635 87.8606 36.7845 87.7336 36.8055C87.5298 36.843 87.3313 36.9044 87.1421 36.9885C86.8418 37.1175 86.6013 37.292 86.4196 37.5125C86.2378 37.733 86.0942 37.9825 85.9968 38.2575C85.8982 38.536 85.8316 38.8249 85.7985 39.1185C85.7644 39.4185 85.7478 39.705 85.7478 39.9795C85.7478 40.3335 85.794 40.6535 85.8869 40.9405C85.9803 41.228 86.1108 41.469 86.284 41.6645C86.4572 41.8645 86.6646 42.0145 86.9096 42.1225C87.1546 42.2305 87.4293 42.2845 87.7376 42.2845C88.0208 42.2845 88.2828 42.2305 88.5193 42.1305C88.7473 42.0344 88.9541 41.8945 89.1279 41.719C89.2966 41.548 89.4321 41.344 89.525 41.1155C89.6219 40.8865 89.6686 40.641 89.6686 40.383C89.6686 40.1045 89.6265 39.851 89.5461 39.626C89.4721 39.4115 89.3541 39.2146 89.1997 39.048C89.0449 38.8841 88.8558 38.7561 88.6459 38.673C88.4146 38.5822 88.1679 38.5371 87.9193 38.54C87.7587 38.54 87.6025 38.561 87.4504 38.6025C87.3024 38.644 87.1603 38.7041 87.0276 38.7815C86.8988 38.8549 86.7809 38.9458 86.6772 39.0515C86.5757 39.156 86.4914 39.2725 86.4321 39.4055H86.4151C86.4281 39.235 86.4492 39.0605 86.4869 38.8815C86.525 38.7025 86.5798 38.5315 86.6521 38.3695C86.7239 38.2075 86.8167 38.0615 86.9307 37.9285C87.0529 37.7942 87.2028 37.6878 87.37 37.6165C87.554 37.5292 87.7486 37.4663 87.949 37.4295L88.0815 37.4055C88.2136 37.3815 88.3396 37.3585 88.4601 37.3335C88.6208 37.3005 88.7684 37.258 88.9039 37.196ZM86.5546 40.7535C86.4893 40.5434 86.458 40.3243 86.4618 40.1045C86.4901 39.9783 86.5417 39.8584 86.6139 39.751C86.6857 39.6385 86.7786 39.539 86.8885 39.451C87.1367 39.2574 87.4434 39.1534 87.7587 39.156C88.1518 39.156 88.4475 39.2765 88.6544 39.514C88.8618 39.755 88.9632 40.0545 88.9632 40.4165C88.9632 40.5955 88.929 40.758 88.8703 40.9075C88.8132 41.0549 88.7269 41.1895 88.6166 41.3031C88.5063 41.4167 88.3742 41.5071 88.2281 41.569C88.076 41.6355 87.9108 41.669 87.725 41.669C87.5392 41.669 87.37 41.6315 87.2139 41.5565C87.0587 41.483 86.9216 41.3765 86.8122 41.2445C86.6977 41.0974 86.6105 40.9311 86.5546 40.7535ZM94.7895 38.4985H94.1217V42.2015H94.7895V38.4985ZM90.6316 38.4985H91.2994V39.6095H91.9165C92.2077 39.6095 92.4442 39.647 92.6345 39.7175C92.8248 39.7885 92.9769 39.884 93.0909 40.0005C93.2049 40.117 93.2852 40.2545 93.3319 40.408C93.3781 40.562 93.4037 40.72 93.4037 40.8865C93.4037 41.053 93.3781 41.2115 93.3234 41.3695C93.2726 41.5275 93.1838 41.6645 93.0653 41.7895C92.9473 41.9145 92.7866 42.0145 92.5838 42.0895C92.3809 42.164 92.1359 42.2055 91.8402 42.2055H90.6276V38.4985H90.6316ZM91.2994 40.229V41.5855H91.7854C92.1193 41.5855 92.3558 41.5275 92.4909 41.4105C92.6264 41.294 92.6937 41.128 92.6937 40.9075C92.6937 40.6825 92.6219 40.5125 92.4869 40.3955C92.3473 40.279 92.1148 40.2205 91.794 40.2205H91.2994V40.229Z" fill="black"/>
<path id="path90" d="M99.2047 41.6684C99.044 41.8724 98.8326 42.0264 98.5791 42.1304C98.3189 42.2358 98.0405 42.2895 97.7597 42.2884C97.4803 42.2922 97.2026 42.2458 96.9398 42.1514C96.7036 42.0662 96.4879 41.933 96.3061 41.7604C96.1266 41.5875 95.9854 41.379 95.8919 41.1484C95.7914 40.8956 95.7413 40.6258 95.7443 40.3539C95.7443 40.0839 95.7905 39.8339 95.8879 39.5969C95.9808 39.3594 96.1158 39.1559 96.285 38.9849C96.4542 38.8104 96.6566 38.6774 96.885 38.5734C97.1258 38.4678 97.3867 38.4153 97.6497 38.4194C97.9495 38.4194 98.2286 38.4569 98.4822 38.5314C98.7357 38.6064 98.9511 38.7314 99.1284 38.9064L98.8201 39.4264C98.671 39.2918 98.4954 39.1897 98.3044 39.1264C98.1229 39.0682 97.9333 39.0388 97.7426 39.0394C97.5739 39.0394 97.4132 39.0724 97.2566 39.1349C97.1029 39.1967 96.9624 39.2871 96.8428 39.4014C96.7214 39.5197 96.6251 39.6612 96.5597 39.8174C96.4879 39.9794 96.4542 40.1584 96.4542 40.3579C96.4542 40.5619 96.4919 40.7449 96.5637 40.9029C96.6355 41.0654 96.7329 41.2029 96.8554 41.3189C96.9779 41.4359 97.1215 41.5229 97.2862 41.5814C97.4514 41.6394 97.6246 41.6729 97.8104 41.6729C98.0383 41.6729 98.2412 41.6269 98.4229 41.5394C98.5986 41.455 98.7564 41.3379 98.8879 41.1944L99.2047 41.6684ZM99.5466 38.4984H102.973V39.1559H101.596V42.2009H100.928V39.1559H99.5511V38.4984H99.5466Z" fill="black"/>
<path id="path92" fill-rule="evenodd" clip-rule="evenodd" d="M104.367 38.4988H103.7V43.8488H104.367V42.0308C104.503 42.1183 104.663 42.1808 104.849 42.2223C105.035 42.2638 105.229 42.2843 105.428 42.2843C105.724 42.2843 105.99 42.2303 106.231 42.1308C106.462 42.0323 106.671 41.8896 106.847 41.7108C107.021 41.5313 107.152 41.3233 107.244 41.0778C107.337 40.8328 107.384 40.5703 107.384 40.2918C107.384 40.0168 107.342 39.7633 107.262 39.5343C107.186 39.3168 107.068 39.1162 106.915 38.9438C106.765 38.7757 106.578 38.6434 106.37 38.5568C106.142 38.4592 105.896 38.411 105.647 38.4153C105.386 38.4153 105.141 38.4653 104.908 38.5653C104.676 38.6653 104.494 38.7853 104.367 38.9353V38.4988ZM104.832 39.1853C105.023 39.0853 105.23 39.0353 105.454 39.0353C105.648 39.0353 105.821 39.0643 105.978 39.1268C106.13 39.1893 106.256 39.2768 106.362 39.3933C106.468 39.5098 106.548 39.6433 106.599 39.8008C106.654 39.9588 106.679 40.1298 106.679 40.3168C106.679 40.5168 106.645 40.6953 106.586 40.8618C106.531 41.0197 106.443 41.1643 106.328 41.2863C106.213 41.4069 106.073 41.5018 105.918 41.5648C105.746 41.6368 105.56 41.6722 105.373 41.6688C105.192 41.6688 105.023 41.6483 104.862 41.6068C104.686 41.5591 104.519 41.4831 104.368 41.3818V39.5468C104.486 39.4058 104.643 39.2853 104.832 39.1853ZM112.505 38.4983H111.837V42.2013H112.505V38.4983ZM108.343 38.4983H109.011V39.6093H109.627C109.919 39.6093 110.156 39.6468 110.346 39.7173C110.536 39.7883 110.688 39.8838 110.802 40.0003C110.916 40.1168 110.997 40.2543 111.043 40.4078C111.089 40.5618 111.115 40.7198 111.115 40.8863C111.115 41.0528 111.09 41.2113 111.035 41.3693C110.984 41.5273 110.895 41.6643 110.777 41.7893C110.659 41.9143 110.498 42.0143 110.295 42.0893C110.092 42.1638 109.847 42.2053 109.552 42.2053H108.339V38.4983H108.343ZM109.015 40.2288V41.5853H109.501C109.835 41.5853 110.072 41.5273 110.207 41.4103C110.342 41.2938 110.41 41.1278 110.41 40.9073C110.41 40.6823 110.338 40.5123 110.203 40.3953C110.063 40.2788 109.831 40.2203 109.51 40.2203H109.015V40.2288Z" fill="black"/>
<path id="path94" d="M115.708 40.2833L117.136 42.2013H116.317L115.214 40.7033L114.094 42.2013H113.317L114.736 40.3163L113.401 38.4983H114.221L115.239 39.8963L116.274 38.4983H117.052L115.708 40.2833ZM57.0552 46.7778H55.0062V49.8648H54.3384V46.1623H57.7225V49.8648H57.0552V46.7778ZM61.5123 46.8193H60.1943L60.1516 47.4433C60.1054 47.9718 60.0421 48.3963 59.9533 48.7203C59.8644 49.0453 59.7544 49.2948 59.6279 49.4693C59.5014 49.6443 59.3533 49.7648 59.1841 49.8233C59.0095 49.8863 58.825 49.9173 58.6393 49.9148L58.5886 49.2738C58.6604 49.2778 58.7447 49.2613 58.8376 49.2198C58.931 49.1783 59.0239 49.0868 59.1123 48.9498C59.2011 48.8078 59.2815 48.6083 59.3533 48.3503C59.4251 48.0883 59.4718 47.7473 59.4969 47.3183L59.5647 46.1658H62.1801V49.8688H61.5123V46.8193Z" fill="black"/>
<path id="path96" fill-rule="evenodd" clip-rule="evenodd" d="M63.98 46.1706C63.7641 46.2286 63.5698 46.3116 63.4051 46.4156L63.5828 46.9401C63.7349 46.8651 63.8871 46.8026 64.0387 46.7486C64.1908 46.6946 64.3857 46.6696 64.6176 46.6696C64.8039 46.6696 64.9515 46.6986 65.0655 46.7566C65.18 46.8111 65.2643 46.8941 65.3236 46.9941C65.3823 47.0941 65.4205 47.2191 65.4416 47.3641C65.4626 47.5101 65.4712 47.6681 65.4712 47.8386C65.3345 47.7439 65.1788 47.6801 65.0148 47.6516C64.8562 47.6202 64.695 47.6034 64.5333 47.6016C64.335 47.6016 64.1487 47.6306 63.9714 47.6806C63.7937 47.7306 63.6416 47.8056 63.5191 47.9056C63.394 48.0054 63.2929 48.1318 63.2233 48.2756C63.1491 48.433 63.1116 48.6052 63.1139 48.7791C63.1139 49.1406 63.2193 49.4241 63.4307 49.6236C63.6416 49.8231 63.9207 49.9231 64.2672 49.9231C64.58 49.9231 64.829 49.8691 65.0193 49.7606C65.2091 49.6526 65.3612 49.5276 65.4712 49.3861V49.8646H66.0968V47.5931C66.0968 47.1106 65.9909 46.7361 65.7755 46.4741C65.5641 46.2116 65.188 46.0791 64.6558 46.0791C64.4274 46.0793 64.2002 46.1104 63.98 46.1706ZM65.0996 49.1696C64.948 49.2781 64.7492 49.3281 64.5042 49.3281C64.2842 49.3281 64.1196 49.2741 64.0016 49.1696C63.8831 49.0616 63.8238 48.9201 63.8238 48.7456C63.8238 48.6416 63.8449 48.5541 63.8916 48.4751C63.9378 48.3961 64.0016 48.3336 64.0734 48.2836C64.1452 48.2336 64.2335 48.1961 64.3309 48.1711C64.4275 48.1463 64.5269 48.1338 64.6267 48.1341C64.956 48.1341 65.2392 48.2131 65.4717 48.3791V48.8491C65.362 48.9714 65.2369 49.0791 65.0996 49.1696Z" fill="black"/>
<path id="path98" d="M66.751 46.1624H70.1778V46.8194H68.8V49.8649H68.1327V46.8199H66.7555V46.1624H66.751Z" fill="black"/>
<path id="path100" fill-rule="evenodd" clip-rule="evenodd" d="M73.2961 49.8273C73.5496 49.7483 73.765 49.6273 73.9508 49.4613L73.748 48.9453C73.6254 49.0538 73.4608 49.1453 73.2619 49.2203C73.0636 49.2953 72.8397 49.3323 72.5946 49.3323C72.2271 49.3323 71.9228 49.2368 71.6818 49.0413C71.4408 48.8458 71.3103 48.5713 71.2807 48.2213H74.1707C74.1998 48.0928 74.2129 47.9468 74.2129 47.7763C74.2129 47.5228 74.1662 47.2938 74.0733 47.0858C73.9868 46.8839 73.8602 46.7014 73.7013 46.5493C73.5406 46.398 73.3511 46.2805 73.1439 46.2038C72.927 46.12 72.6962 46.0776 72.4636 46.0788C72.1508 46.0788 71.8762 46.1328 71.6357 46.2328C71.4081 46.3278 71.2025 46.468 71.0311 46.6448C70.8647 46.8205 70.7366 47.0288 70.6551 47.2563C70.566 47.4987 70.5216 47.7552 70.524 48.0133C70.524 48.3048 70.5747 48.5708 70.6676 48.8083C70.761 49.0453 70.9001 49.2493 71.0733 49.4198C71.2465 49.5903 71.4579 49.7193 71.7075 49.8108C71.9744 49.9053 72.2561 49.9519 72.5394 49.9483C72.789 49.9483 73.0425 49.9063 73.2961 49.8273ZM71.602 46.9733C71.8089 46.7863 72.0835 46.6948 72.43 46.6948C72.7598 46.6948 73.0174 46.7863 73.2077 46.9568C73.3975 47.1318 73.4989 47.3728 73.516 47.6808H71.2345C71.2667 47.4083 71.3973 47.1569 71.602 46.9733ZM74.5382 46.1623H75.3833L76.6716 47.9473L75.2944 49.8648H74.475L75.9195 47.9468L74.5382 46.1623ZM76.8363 46.1623H77.5041V49.8648H76.8363V46.1623ZM79.891 49.8648L78.4209 47.9468L79.7941 46.1618H78.9657L77.6688 47.9468L79.0631 49.8648H79.891ZM82.9418 49.8273C83.1953 49.7483 83.4107 49.6273 83.5965 49.4613L83.3936 48.9453C83.2711 49.0538 83.1064 49.1453 82.9081 49.2203C82.7093 49.2953 82.4854 49.3323 82.2403 49.3323C81.8728 49.3323 81.5685 49.2368 81.3275 49.0413C81.087 48.8458 80.956 48.5713 80.9264 48.2213H83.8164C83.846 48.0928 83.8586 47.9468 83.8586 47.7763C83.8586 47.5228 83.8124 47.2938 83.719 47.0858C83.6325 46.884 83.5061 46.7015 83.3475 46.5493C83.1867 46.398 82.997 46.2805 82.7896 46.2038C82.5727 46.12 82.3419 46.0776 82.1093 46.0788C81.797 46.0788 81.5223 46.1328 81.2813 46.2328C81.054 46.328 80.8485 46.4681 80.6773 46.6448C80.5105 46.8203 80.3824 47.0286 80.3013 47.2563C80.212 47.4987 80.1676 47.7551 80.1702 48.0133C80.1702 48.3048 80.2209 48.5708 80.3138 48.8083C80.4067 49.0453 80.5463 49.2493 80.7195 49.4198C80.8927 49.5903 81.1036 49.7193 81.3531 49.8108C81.6203 49.9053 81.9021 49.9519 82.1856 49.9483C82.4424 49.9464 82.6973 49.9056 82.9418 49.8273ZM81.2477 46.9733C81.4551 46.7863 81.7297 46.6948 82.0761 46.6948C82.4015 46.6948 82.6631 46.7863 82.8534 46.9568C83.0437 47.1318 83.1451 47.3728 83.1617 47.6808H80.8802C80.9124 47.4083 81.043 47.1569 81.2477 46.9733ZM86.5674 44.9183C86.1742 44.9183 85.9588 44.7018 85.9252 44.2693H85.2956C85.2956 44.4353 85.3252 44.5853 85.3799 44.7268C85.4351 44.8683 85.5155 44.9888 85.6209 45.0888C85.7264 45.1888 85.8619 45.2678 86.0181 45.3298C86.1742 45.3923 86.356 45.4213 86.5628 45.4213C86.7531 45.4213 86.9223 45.3923 87.0745 45.3298C87.2266 45.2718 87.3531 45.1888 87.4631 45.0888C87.5685 44.9888 87.6534 44.8683 87.7121 44.7268C87.7714 44.5853 87.801 44.4353 87.801 44.2693H87.1759C87.1463 44.7018 86.9389 44.9183 86.5674 44.9183ZM84.7628 46.1618V49.8648H85.4306L87.6022 47.1063V49.8648H88.27V46.1618H87.6022L85.4306 48.9203V46.1618H84.7628Z" fill="black"/>
</g>
</svg>
