<svg width="24" height="24" viewBox="0 0 24 24" fill="none" xmlns="http://www.w3.org/2000/svg">
<g id="&#208;&#161;&#208;&#145;&#208;&#159;_&#208;&#187;&#208;&#190;&#208;&#179;&#208;&#190;&#209;&#130;&#208;&#184;&#208;&#191; 2" clip-path="url(#clip0_1527_42611)">
<g id="Group">
<path id="path66" d="M2.3999 5.22421L5.2589 10.4192V13.588L2.40325 18.7728L2.3999 5.22421Z" fill="#5B57A2"/>
<path id="path68" d="M13.3772 8.52869L16.0562 6.85949L21.5389 6.85429L13.3772 11.9371V8.52869Z" fill="#D90751"/>
<path id="path70" d="M13.3623 5.1934L13.3774 12.0714L10.5117 10.2814V0L13.3623 5.1934Z" fill="#FAB718"/>
<path id="path72" d="M21.5391 6.8542L16.0562 6.8594L13.3623 5.1934L10.5117 0L21.5391 6.8542Z" fill="#ED6F26"/>
<path id="path74" d="M13.3774 18.8016V15.4646L10.5117 13.7086L10.5133 24.0002L13.3774 18.8016Z" fill="#63B22F"/>
<path id="path76" d="M16.0496 17.1476L5.2587 10.4192L2.3999 5.22421L21.5274 17.1408L16.0496 17.1476Z" fill="#1487C9"/>
<path id="path78" d="M10.5134 23.9998L13.3771 18.8012L16.0494 17.1472L21.5272 17.1404L10.5134 23.9998Z" fill="#017F36"/>
<path id="path80" d="M2.40332 18.7727L10.5351 13.7087L7.80122 12.0035L5.25897 13.5879L2.40332 18.7727Z" fill="#984995"/>
</g>
</g>
<defs>
<clipPath id="clip0_1527_42611">
<rect width="24" height="24" fill="white"/>
</clipPath>
</defs>
</svg>
