<svg width="40" height="40" viewBox="0 0 40 40" fill="none" xmlns="http://www.w3.org/2000/svg">
<g id="&#208;&#160;&#208;&#176;&#208;&#185;&#209;&#132;&#209;&#132;&#208;&#176;&#208;&#185;&#208;&#183;&#208;&#181;&#208;&#189;&#208;&#177;&#208;&#176;&#208;&#189;&#208;&#186; [raiffeisen]">
<path id="path" d="M40 32.44C40 37.3 37.3 40 32.44 40H7.56C2.7 40 0 37.3 0 32.44V7.56C0 2.7 2.7 0 7.56 0H32.45C37.3 0 40 2.7 40 7.56V32.44Z" fill="#FFE600"/>
<path id="path_2" d="M25.7195 18.0497V14.2297L27.0995 12.8497V16.1597L28.2995 17.3597L33.1295 12.5297L34.3195 13.7197C34.3095 12.8197 34.1295 10.2097 31.9195 8.03967C29.5395 5.73967 26.9595 6.77967 26.0795 7.65967L21.2595 12.4797L22.4895 13.7097L19.9995 16.2197L17.5095 13.7297L18.7395 12.4997L13.9195 7.67967C13.0395 6.79967 10.4595 5.75967 8.07944 8.05967C5.86944 10.2297 5.68944 12.8397 5.67944 13.7397L6.86944 12.5497L11.6995 17.3797L12.8995 16.1797V12.8697L14.2795 14.2497V18.0697L16.2195 19.9997L6.65944 29.5597L10.4395 33.3297L19.9995 23.7797L29.5595 33.3397L33.3395 29.5697L23.7795 19.9997L25.7195 18.0497Z" fill="#2B2D34"/>
</g>
</svg>
