<svg width="210" height="33" viewBox="0 0 210 33" fill="none" xmlns="http://www.w3.org/2000/svg">
<path d="M11.944 20.309H16.9528L19.4708 23.5484L21.948 26.4339L26.6166 32.2866H21.1178L17.9056 28.3395L16.2586 25.9984L11.944 20.309ZM27.0385 16.0624C27.0385 19.1022 26.4623 21.6883 25.3099 23.8206C24.1666 25.953 22.6059 27.5818 20.6278 28.707C18.6587 29.8231 16.4447 30.3811 13.9856 30.3811C11.5084 30.3811 9.28532 29.8185 7.31627 28.6934C5.34723 27.5682 3.79104 25.9394 2.64773 23.807C1.50441 21.6747 0.932751 19.0931 0.932751 16.0624C0.932751 13.0226 1.50441 10.4366 2.64773 8.30419C3.79104 6.17181 5.34723 4.54757 7.31627 3.43148C9.28532 2.30631 11.5084 1.74372 13.9856 1.74372C16.4447 1.74372 18.6587 2.30631 20.6278 3.43148C22.6059 4.54757 24.1666 6.17181 25.3099 8.30419C26.4623 10.4366 27.0385 13.0226 27.0385 16.0624ZM21.0633 16.0624C21.0633 14.0934 20.7684 12.4328 20.1786 11.0808C19.5979 9.7288 18.7767 8.70344 17.715 8.00475C16.6534 7.30606 15.4102 6.95671 13.9856 6.95671C12.561 6.95671 11.3179 7.30606 10.2562 8.00475C9.19458 8.70344 8.36885 9.7288 7.77905 11.0808C7.19831 12.4328 6.90795 14.0934 6.90795 16.0624C6.90795 18.0315 7.19831 19.692 7.77905 21.044C8.36885 22.396 9.19458 23.4214 10.2562 24.1201C11.3179 24.8188 12.561 25.1681 13.9856 25.1681C15.4102 25.1681 16.6534 24.8188 17.715 24.1201C18.7767 23.4214 19.5979 22.396 20.1786 21.044C20.7684 19.692 21.0633 18.0315 21.0633 16.0624Z" fill="#F1C025"/>
<path d="M31.2953 30V9.09362H36.9166V12.7414H37.1344C37.5155 11.4438 38.1552 10.4638 39.0535 9.80139C39.9519 9.12992 40.9863 8.79418 42.1568 8.79418C42.4472 8.79418 42.7602 8.81233 43.096 8.84863C43.4317 8.88492 43.7266 8.93483 43.9807 8.99835V14.1433C43.7085 14.0616 43.3319 13.989 42.851 13.9255C42.3701 13.862 41.93 13.8302 41.5307 13.8302C40.6778 13.8302 39.9156 14.0162 39.2441 14.3883C38.5817 14.7512 38.0554 15.2594 37.6652 15.9127C37.2841 16.566 37.0936 17.3192 37.0936 18.1721V30H31.2953ZM55.533 30.4083C53.3824 30.4083 51.5314 29.9728 49.9797 29.1017C48.4371 28.2215 47.2485 26.9784 46.4136 25.3723C45.5788 23.7571 45.1614 21.8471 45.1614 19.6421C45.1614 17.4916 45.5788 15.6042 46.4136 13.9799C47.2485 12.3557 48.4235 11.0899 49.9389 10.1825C51.4633 9.2751 53.2509 8.8214 55.3016 8.8214C56.6808 8.8214 57.9648 9.04372 59.1535 9.48834C60.3512 9.92389 61.3947 10.5818 62.284 11.4619C63.1823 12.3421 63.881 13.4491 64.3801 14.783C64.8791 16.1078 65.1287 17.6594 65.1287 19.4379V21.0304H47.4753V17.4371H59.6707C59.6707 16.6023 59.4892 15.8628 59.1262 15.2185C58.7633 14.5743 58.2597 14.0707 57.6154 13.7077C56.9803 13.3357 56.2407 13.1497 55.3969 13.1497C54.5167 13.1497 53.7363 13.3538 53.0558 13.7622C52.3843 14.1614 51.858 14.7013 51.4769 15.3819C51.0958 16.0533 50.9007 16.8019 50.8916 17.6277V21.044C50.8916 22.0784 51.0822 22.9722 51.4633 23.7254C51.8535 24.4785 52.4025 25.0592 53.1102 25.4676C53.818 25.8759 54.6573 26.0801 55.6282 26.0801C56.2725 26.0801 56.8623 25.9893 57.3977 25.8078C57.933 25.6264 58.3913 25.3541 58.7724 24.9912C59.1535 24.6282 59.4438 24.1836 59.6435 23.6573L65.0062 24.0112C64.734 25.2997 64.1759 26.4249 63.332 27.3867C62.4972 28.3395 61.4174 29.0835 60.0926 29.6189C58.7769 30.1452 57.257 30.4083 55.533 30.4083ZM76.6163 30.3403C75.0283 30.3403 73.5901 29.9319 72.3016 29.1153C71.0222 28.2896 70.0059 27.0782 69.2528 25.4812C68.5087 23.8751 68.1367 21.906 68.1367 19.574C68.1367 17.1785 68.5223 15.1868 69.2936 13.5988C70.0649 12.0018 71.0903 10.8086 72.3697 10.0192C73.6582 9.22066 75.0692 8.8214 76.6027 8.8214C77.7732 8.8214 78.7487 9.02103 79.529 9.42029C80.3185 9.81046 80.9536 10.3005 81.4346 10.8903C81.9245 11.471 82.2966 12.0427 82.5506 12.6052H82.7276V2.12483H88.5122V30H82.7956V26.6517H82.5506C82.2784 27.2324 81.8928 27.8086 81.3937 28.3803C80.9037 28.9429 80.264 29.4102 79.4746 29.7822C78.6942 30.1543 77.7415 30.3403 76.6163 30.3403ZM78.4538 25.7262C79.3884 25.7262 80.1778 25.4721 80.8221 24.964C81.4754 24.4467 81.9745 23.7254 82.3193 22.7998C82.6731 21.8743 82.8501 20.7899 82.8501 19.5468C82.8501 18.3037 82.6777 17.2239 82.3329 16.3074C81.9881 15.3909 81.489 14.6832 80.8357 14.1841C80.1823 13.685 79.3884 13.4355 78.4538 13.4355C77.501 13.4355 76.698 13.6941 76.0446 14.2113C75.3913 14.7285 74.8968 15.4454 74.561 16.3619C74.2253 17.2783 74.0574 18.34 74.0574 19.5468C74.0574 20.7627 74.2253 21.838 74.561 22.7726C74.9058 23.6981 75.4004 24.4241 76.0446 24.9503C76.698 25.4676 77.501 25.7262 78.4538 25.7262ZM93.2795 30V9.09362H99.0777V30H93.2795ZM96.1922 6.39866C95.3302 6.39866 94.5906 6.11283 93.9736 5.54117C93.3657 4.96044 93.0617 4.26628 93.0617 3.4587C93.0617 2.66019 93.3657 1.97511 93.9736 1.40345C94.5906 0.822718 95.3302 0.532351 96.1922 0.532351C97.0542 0.532351 97.7892 0.822718 98.3972 1.40345C99.0142 1.97511 99.3227 2.66019 99.3227 3.4587C99.3227 4.26628 99.0142 4.96044 98.3972 5.54117C97.7892 6.11283 97.0542 6.39866 96.1922 6.39866ZM114.843 9.09362V13.4491H102.252V9.09362H114.843ZM105.111 4.0848H110.909V23.5756C110.909 24.111 110.991 24.5284 111.154 24.8278C111.317 25.1182 111.544 25.3224 111.835 25.4403C112.134 25.5583 112.479 25.6173 112.869 25.6173C113.141 25.6173 113.413 25.5946 113.686 25.5492C113.958 25.4948 114.167 25.454 114.312 25.4267L115.224 29.7414C114.933 29.8321 114.525 29.9365 113.999 30.0544C113.472 30.1815 112.833 30.2586 112.08 30.2858C110.682 30.3403 109.457 30.1543 108.405 29.7278C107.361 29.3013 106.549 28.6389 105.968 27.7406C105.388 26.8423 105.102 25.708 105.111 24.3379V4.0848ZM124.323 23.984L124.336 17.0288H125.18L131.877 9.09362H138.532L129.536 19.6013H128.161L124.323 23.984ZM119.069 30V2.12483H124.867V30H119.069ZM132.135 30L125.983 20.8943L129.849 16.7974L138.927 30H132.135ZM147.339 30.3947C146.005 30.3947 144.816 30.1633 143.773 29.7006C142.729 29.2287 141.903 28.5346 141.295 27.6181C140.697 26.6925 140.397 25.5402 140.397 24.1609C140.397 22.9994 140.61 22.024 141.037 21.2346C141.463 20.4451 142.044 19.81 142.779 19.329C143.514 18.8481 144.349 18.4852 145.283 18.2402C146.227 17.9952 147.216 17.8228 148.251 17.7229C149.466 17.5959 150.446 17.478 151.191 17.3691C151.935 17.2511 152.474 17.0787 152.81 16.8518C153.146 16.625 153.314 16.2893 153.314 15.8446V15.763C153.314 14.9009 153.042 14.234 152.497 13.7622C151.962 13.2903 151.2 13.0544 150.211 13.0544C149.167 13.0544 148.337 13.2858 147.72 13.7486C147.103 14.2023 146.694 14.7739 146.495 15.4635L141.132 15.028C141.404 13.7576 141.94 12.6597 142.738 11.7341C143.537 10.7995 144.567 10.0827 145.828 9.58361C147.098 9.07547 148.568 8.8214 150.238 8.8214C151.399 8.8214 152.511 8.95751 153.572 9.22973C154.643 9.50195 155.591 9.92389 156.417 10.4955C157.252 11.0672 157.91 11.8022 158.391 12.7005C158.872 13.5898 159.112 14.656 159.112 15.8991V30H153.613V27.1009H153.45C153.114 27.7542 152.665 28.3304 152.102 28.8295C151.54 29.3195 150.864 29.7051 150.074 29.9864C149.285 30.2586 148.373 30.3947 147.339 30.3947ZM148.999 26.3931C149.852 26.3931 150.605 26.2252 151.259 25.8895C151.912 25.5447 152.425 25.0819 152.797 24.5012C153.169 23.9205 153.355 23.2626 153.355 22.5276V20.309C153.173 20.427 152.924 20.5359 152.606 20.6357C152.298 20.7264 151.948 20.8126 151.558 20.8943C151.168 20.9669 150.778 21.0349 150.387 21.0985C149.997 21.1529 149.643 21.2028 149.326 21.2482C148.645 21.348 148.051 21.5068 147.543 21.7246C147.035 21.9423 146.64 22.2372 146.359 22.6093C146.077 22.9722 145.937 23.4259 145.937 23.9704C145.937 24.7598 146.223 25.3632 146.794 25.7806C147.375 26.1889 148.11 26.3931 148.999 26.3931ZM167 30.3539C166.101 30.3539 165.33 30.0363 164.686 29.4011C164.051 28.7569 163.733 27.9856 163.733 27.0873C163.733 26.198 164.051 25.4358 164.686 24.8006C165.33 24.1655 166.101 23.8479 167 23.8479C167.871 23.8479 168.633 24.1655 169.286 24.8006C169.94 25.4358 170.266 26.198 170.266 27.0873C170.266 27.6861 170.112 28.2351 169.803 28.7342C169.504 29.2242 169.109 29.6189 168.619 29.9183C168.129 30.2087 167.589 30.3539 167 30.3539ZM175.027 30V9.09362H180.648V12.7414H180.866C181.247 11.4438 181.887 10.4638 182.785 9.80139C183.683 9.12992 184.718 8.79418 185.888 8.79418C186.179 8.79418 186.492 8.81233 186.827 8.84863C187.163 8.88492 187.458 8.93483 187.712 8.99835V14.1433C187.44 14.0616 187.063 13.989 186.582 13.9255C186.101 13.862 185.661 13.8302 185.262 13.8302C184.409 13.8302 183.647 14.0162 182.975 14.3883C182.313 14.7512 181.787 15.2594 181.397 15.9127C181.015 16.566 180.825 17.3192 180.825 18.1721V30H175.027ZM204.117 21.0985V9.09362H209.915V30H204.348V26.2026H204.13C203.658 27.4275 202.873 28.4121 201.776 29.1561C200.687 29.9002 199.357 30.2722 197.788 30.2722C196.39 30.2722 195.161 29.9546 194.099 29.3195C193.037 28.6843 192.207 27.7814 191.608 26.6109C191.018 25.4403 190.719 24.0384 190.71 22.4051V9.09362H196.508V21.3707C196.517 22.6047 196.848 23.5802 197.502 24.297C198.155 25.0139 199.031 25.3723 200.129 25.3723C200.827 25.3723 201.481 25.2135 202.089 24.8959C202.697 24.5692 203.187 24.0883 203.559 23.4531C203.94 22.818 204.126 22.0331 204.117 21.0985Z" fill="#394D69"/>
</svg>
