<svg width="147" height="23" viewBox="0 0 147 23" fill="none" xmlns="http://www.w3.org/2000/svg">
<path d="M8.05338 14.2219H11.5567L13.3179 16.4876L15.0505 18.5058L18.3158 22.5993H14.4698L12.2231 19.8386L11.0712 18.2012L8.05338 14.2219ZM18.6109 11.2517C18.6109 13.3778 18.2079 15.1865 17.4019 16.678C16.6022 18.1694 15.5106 19.3086 14.127 20.0956C12.7498 20.8762 11.2013 21.2666 9.48135 21.2666C7.74874 21.2666 6.19383 20.8731 4.81663 20.0861C3.43942 19.2991 2.35099 18.1599 1.55132 16.6685C0.751652 15.177 0.351819 13.3714 0.351819 11.2517C0.351819 9.12557 0.751652 7.3168 1.55132 5.82536C2.35099 4.33392 3.43942 3.19788 4.81663 2.41725C6.19383 1.63028 7.74874 1.23679 9.48135 1.23679C11.2013 1.23679 12.7498 1.63028 14.127 2.41725C15.5106 3.19788 16.6022 4.33392 17.4019 5.82536C18.2079 7.3168 18.6109 9.12557 18.6109 11.2517ZM14.4317 11.2517C14.4317 9.87447 14.2254 8.71305 13.8129 7.76741C13.4067 6.82177 12.8323 6.10461 12.0898 5.61592C11.3472 5.12724 10.4778 4.8829 9.48135 4.8829C8.48494 4.8829 7.61546 5.12724 6.87292 5.61592C6.13037 6.10461 5.55283 6.82177 5.1403 7.76741C4.73412 8.71305 4.53103 9.87447 4.53103 11.2517C4.53103 12.6289 4.73412 13.7903 5.1403 14.7359C5.55283 15.6816 6.13037 16.3987 6.87292 16.8874C7.61546 17.3761 8.48494 17.6205 9.48135 17.6205C10.4778 17.6205 11.3472 17.3761 12.0898 16.8874C12.8323 16.3987 13.4067 15.6816 13.8129 14.7359C14.2254 13.7903 14.4317 12.6289 14.4317 11.2517Z" fill="#F1C025"/>
<path d="M21.5882 21V6.37751H25.5199V8.92883H25.6722C25.9388 8.02127 26.3862 7.33584 27.0145 6.87254C27.6428 6.4029 28.3664 6.16807 29.1851 6.16807C29.3882 6.16807 29.6071 6.18077 29.8419 6.20615C30.0768 6.23154 30.283 6.26645 30.4607 6.31087V9.90938C30.2703 9.85226 30.0069 9.80148 29.6706 9.75706C29.3342 9.71263 29.0264 9.69042 28.7471 9.69042C28.1506 9.69042 27.6175 9.82052 27.1478 10.0807C26.6845 10.3346 26.3164 10.69 26.0435 11.147C25.777 11.6039 25.6437 12.1307 25.6437 12.7273V21H21.5882ZM38.5407 21.2856C37.0366 21.2856 35.7419 20.981 34.6566 20.3717C33.5777 19.7561 32.7463 18.8866 32.1624 17.7633C31.5785 16.6336 31.2866 15.2976 31.2866 13.7554C31.2866 12.2513 31.5785 10.9312 32.1624 9.79514C32.7463 8.6591 33.5682 7.77376 34.628 7.1391C35.6943 6.50444 36.9445 6.18711 38.3789 6.18711C39.3435 6.18711 40.2416 6.34261 41.073 6.65359C41.9107 6.95822 42.6406 7.41835 43.2625 8.03397C43.8909 8.64958 44.3795 9.42386 44.7286 10.3568C45.0777 11.2834 45.2522 12.3687 45.2522 13.6126V14.7264H32.9049V12.2132H41.4347C41.4347 11.6293 41.3078 11.112 41.0539 10.6614C40.8001 10.2108 40.4478 9.8586 39.9972 9.60474C39.553 9.34453 39.0357 9.21443 38.4455 9.21443C37.8299 9.21443 37.2841 9.35722 36.8081 9.64282C36.3384 9.92207 35.9703 10.2997 35.7038 10.7757C35.4372 11.2453 35.3008 11.7689 35.2944 12.3465V14.7359C35.2944 15.4594 35.4277 16.0846 35.6943 16.6113C35.9672 17.1381 36.3511 17.5443 36.8462 17.8299C37.3412 18.1155 37.9283 18.2583 38.6073 18.2583C39.0579 18.2583 39.4705 18.1948 39.8449 18.0679C40.2194 17.941 40.5399 17.7506 40.8064 17.4967C41.073 17.2428 41.2761 16.9319 41.4157 16.5638L45.1665 16.8113C44.9761 17.7125 44.5858 18.4995 43.9956 19.1722C43.4117 19.8386 42.6564 20.359 41.7298 20.7334C40.8096 21.1015 39.7465 21.2856 38.5407 21.2856ZM53.2869 21.238C52.1763 21.238 51.1704 20.9524 50.2691 20.3812C49.3743 19.8037 48.6635 18.9564 48.1367 17.8394C47.6163 16.7161 47.3561 15.3389 47.3561 13.7078C47.3561 12.0323 47.6258 10.6392 48.1653 9.52858C48.7047 8.41159 49.4219 7.57701 50.3167 7.02486C51.218 6.46636 52.2049 6.18711 53.2774 6.18711C54.0961 6.18711 54.7784 6.32674 55.3242 6.60599C55.8763 6.87889 56.3206 7.2216 56.657 7.63413C56.9997 8.04031 57.2599 8.44015 57.4376 8.83363H57.5614V1.50335H61.6073V21H57.609V18.6581H57.4376C57.2472 19.0643 56.9775 19.4673 56.6284 19.8671C56.2857 20.2606 55.8383 20.5875 55.2861 20.8477C54.7403 21.1079 54.0739 21.238 53.2869 21.238ZM54.5721 18.0108C55.2258 18.0108 55.778 17.8331 56.2286 17.4777C56.6855 17.1159 57.0346 16.6113 57.2758 15.964C57.5233 15.3166 57.647 14.5582 57.647 13.6888C57.647 12.8193 57.5264 12.064 57.2853 11.423C57.0441 10.782 56.695 10.287 56.2381 9.93793C55.7811 9.58887 55.2258 9.41434 54.5721 9.41434C53.9057 9.41434 53.3441 9.59522 52.8871 9.95697C52.4302 10.3187 52.0843 10.8201 51.8494 11.4611C51.6146 12.1021 51.4972 12.8447 51.4972 13.6888C51.4972 14.5392 51.6146 15.2913 51.8494 15.945C52.0906 16.5923 52.4365 17.1 52.8871 17.4681C53.3441 17.8299 53.9057 18.0108 54.5721 18.0108ZM64.9416 21V6.37751H68.9971V21H64.9416ZM66.9789 4.49258C66.3759 4.49258 65.8587 4.29266 65.4271 3.89283C65.0019 3.48665 64.7893 3.00114 64.7893 2.43629C64.7893 1.8778 65.0019 1.39863 65.4271 0.998797C65.8587 0.592616 66.3759 0.389525 66.9789 0.389525C67.5818 0.389525 68.0959 0.592616 68.5211 0.998797C68.9526 1.39863 69.1684 1.8778 69.1684 2.43629C69.1684 3.00114 68.9526 3.48665 68.5211 3.89283C68.0959 4.29266 67.5818 4.49258 66.9789 4.49258ZM80.0234 6.37751V9.42386H71.2176V6.37751H80.0234ZM73.2167 2.87421H77.2722V16.5066C77.2722 16.8811 77.3293 17.173 77.4436 17.3825C77.5578 17.5855 77.7165 17.7283 77.9195 17.8109C78.129 17.8934 78.3702 17.9346 78.6431 17.9346C78.8335 17.9346 79.0238 17.9187 79.2142 17.887C79.4046 17.8489 79.5506 17.8204 79.6522 17.8013L80.29 20.8191C80.0869 20.8826 79.8013 20.9556 79.4332 21.0381C79.0651 21.1269 78.6177 21.1809 78.0909 21.1999C77.1135 21.238 76.2567 21.1079 75.5205 20.8096C74.7907 20.5113 74.2227 20.048 73.8165 19.4197C73.4103 18.7914 73.2104 17.9981 73.2167 17.0397V2.87421ZM86.654 16.7922L86.6635 11.9276H87.2538L91.9375 6.37751H96.5927L90.3001 13.7268H89.3386L86.654 16.7922ZM82.9794 21V1.50335H87.0348V21H82.9794ZM92.1184 21L87.8154 14.6312L90.5191 11.7657L96.8688 21H92.1184ZM102.752 21.2761C101.819 21.2761 100.988 21.1142 100.258 20.7906C99.528 20.4605 98.9505 19.975 98.5253 19.334C98.1064 18.6867 97.897 17.8807 97.897 16.916C97.897 16.1036 98.0461 15.4214 98.3444 14.8692C98.6427 14.3171 99.0489 13.8728 99.5629 13.5364C100.077 13.2001 100.661 12.9462 101.315 12.7749C101.975 12.6035 102.666 12.4829 103.39 12.4131C104.24 12.3242 104.926 12.2417 105.446 12.1656C105.967 12.0831 106.344 11.9625 106.579 11.8038C106.814 11.6452 106.931 11.4103 106.931 11.0994V11.0422C106.931 10.4393 106.741 9.97284 106.36 9.64282C105.986 9.3128 105.453 9.14779 104.761 9.14779C104.031 9.14779 103.45 9.30962 103.019 9.6333C102.587 9.95063 102.301 10.3505 102.162 10.8328L98.411 10.5282C98.6014 9.63965 98.9759 8.87171 99.5344 8.22436C100.093 7.57067 100.813 7.06929 101.695 6.72022C102.584 6.36482 103.612 6.18711 104.78 6.18711C105.592 6.18711 106.37 6.28231 107.112 6.47271C107.861 6.66311 108.524 6.95822 109.102 7.35806C109.686 7.75789 110.146 8.27196 110.482 8.90027C110.819 9.52223 110.987 10.268 110.987 11.1374V21H107.141V18.9723H107.026C106.792 19.4292 106.478 19.8322 106.084 20.1813C105.691 20.524 105.218 20.7937 104.666 20.9905C104.113 21.1809 103.476 21.2761 102.752 21.2761ZM103.914 18.4772C104.51 18.4772 105.037 18.3598 105.494 18.125C105.951 17.8838 106.309 17.5602 106.57 17.154C106.83 16.7478 106.96 16.2877 106.96 15.7736V14.2219C106.833 14.3044 106.658 14.3805 106.436 14.4503C106.22 14.5138 105.976 14.5741 105.703 14.6312C105.43 14.682 105.157 14.7296 104.885 14.774C104.612 14.8121 104.364 14.847 104.142 14.8787C103.666 14.9485 103.25 15.0596 102.895 15.2119C102.539 15.3642 102.263 15.5705 102.067 15.8307C101.87 16.0846 101.772 16.4019 101.772 16.7827C101.772 17.3349 101.971 17.7569 102.371 18.0488C102.777 18.3344 103.292 18.4772 103.914 18.4772ZM116.503 21.2475C115.875 21.2475 115.336 21.0254 114.885 20.5811C114.441 20.1305 114.219 19.5911 114.219 18.9628C114.219 18.3408 114.441 17.8077 114.885 17.3634C115.336 16.9192 115.875 16.697 116.503 16.697C117.113 16.697 117.646 16.9192 118.103 17.3634C118.56 17.8077 118.788 18.3408 118.788 18.9628C118.788 19.3816 118.68 19.7656 118.465 20.1147C118.255 20.4574 117.979 20.7334 117.636 20.9429C117.294 21.146 116.916 21.2475 116.503 21.2475ZM122.118 21V6.37751H126.05V8.92883H126.202C126.468 8.02127 126.916 7.33584 127.544 6.87254C128.172 6.4029 128.896 6.16807 129.715 6.16807C129.918 6.16807 130.137 6.18077 130.372 6.20615C130.606 6.23154 130.813 6.26645 130.99 6.31087V9.90938C130.8 9.85226 130.537 9.80148 130.2 9.75706C129.864 9.71263 129.556 9.69042 129.277 9.69042C128.68 9.69042 128.147 9.82052 127.677 10.0807C127.214 10.3346 126.846 10.69 126.573 11.147C126.307 11.6039 126.173 12.1307 126.173 12.7273V21H122.118ZM142.464 14.774V6.37751H146.52V21H142.626V18.344H142.474C142.144 19.2007 141.595 19.8894 140.827 20.4098C140.065 20.9302 139.135 21.1904 138.037 21.1904C137.06 21.1904 136.2 20.9683 135.458 20.524C134.715 20.0797 134.134 19.4483 133.715 18.6296C133.303 17.8109 133.093 16.8303 133.087 15.6879V6.37751H137.143V14.9644C137.149 15.8275 137.381 16.5098 137.837 17.0112C138.294 17.5126 138.907 17.7633 139.675 17.7633C140.164 17.7633 140.62 17.6522 141.046 17.4301C141.471 17.2016 141.814 16.8652 142.074 16.421C142.34 15.9767 142.47 15.4277 142.464 14.774Z" fill="#394D69"/>
</svg>
